<?xml version="1.0" encoding="UTF-8"?>
<svg id="Laag_1" xmlns="http://www.w3.org/2000/svg" version="1.1" viewBox="0 0 1280.12 901.41">
  <!-- Generator: Adobe Illustrator 29.5.1, SVG Export Plug-In . SVG Version: 2.1.0 Build 141)  -->
  <defs>
    <style>
      .st0 {
        font-family: ArialMT, Arial;
        font-size: 30.63px;
      }

      .st0, .st1 {
        isolation: isolate;
      }

      .st2, .st3 {
        stroke: red;
      }

      .st2, .st3, .st4, .st5 {
        stroke-linecap: round;
      }

      .st2, .st3, .st5 {
        fill: none;
      }

      .st2, .st5 {
        stroke-miterlimit: 11.34;
        stroke-width: .28px;
      }

      .st3 {
        stroke-width: .28px;
      }

      .st3, .st4 {
        stroke-miterlimit: 11.34;
      }

      .st4 {
        fill: #777;
        fill-rule: evenodd;
        stroke: #777;
        stroke-width: 2.01px;
      }

      .st5 {
        stroke: #000;
      }
    </style>
  </defs>
  <path id="Front_outsideCutPath" class="st3" d="M0,600.94v22.8h17.01v16.99H0v16.99h17.01v16.99H0v16.99h17.01v16.99H0v16.99h17.01v16.99H0v16.99h17.01v16.99H0v16.99h17.01v16.99H0v16.99h17.01v16.99H0v16.99h17.01v16.99H0v22.79h28.53v-17.01h16.99v17.01h16.99v-17.01h16.99v17.01h16.99v-17.01h16.99v17.01h16.99v-17.01h16.99v17.01h16.99v-17.01h16.99v17.01h16.99v-17.01h16.99v17.01h16.99v-17.01h16.99v17.01h16.99v-17.01h16.99v17.01h16.99v-17.01h16.99v17.01h16.99v-17.01h16.99v17.01h16.99v-17.01h16.99v17.01h16.99v-17.01h16.99v17.01h28.53v-22.79h-17.01v-16.99h17.01v-16.99h-17.01v-16.99h17.01v-16.99h-17.01v-16.99h17.01v-16.99h-17.01v-16.99h17.01v-16.99h-17.01v-16.99h17.01v-16.99h-17.01v-16.99h17.01v-16.99h-17.01v-16.99h17.01v-16.99h-17.01v-16.99h17.01v-22.8H0Z" vector-effect="non-scaling-stroke"/>
  <path id="Front_labelLayer" class="st4" d="M270.53,772.33h-4.87v-20.8c0-.72-.05-1.45-.16-2.16-.25-1.56-.79-2.8-1.63-3.71-.97-1.05-2.37-1.67-4.22-1.87-.46-.05-.92-.07-1.38-.07-2.22,0-4.04.39-5.48,1.18-.73.4-1.38.92-1.92,1.54-1.43,1.66-2.21,4.31-2.33,7.95-.01.35-.02.7-.02,1.06v16.87h-4.87v-32.16h3.96l.79,4.4h.24c1-1.58,2.4-2.81,4.2-3.68,1.47-.7,3.07-1.13,4.69-1.25.44-.04.88-.05,1.32-.05,1.1,0,2.19.08,3.27.26,2.29.4,4.11,1.24,5.47,2.54.92.9,1.63,2.01,2.06,3.23.33.89.57,1.88.71,2.98.12.91.17,1.84.17,2.76v20.98ZM157.53,753.99v18.34h-4.99v-42.9h23.91v4.43h-18.92v15.7h17.78v4.43h-17.78ZM295.32,768.31v3.72c-.18.09-.37.16-.57.23-.47.15-1.06.29-1.77.41-.46.07-.91.13-1.37.18-.5.05-.96.07-1.4.07-6.22,0-9.33-3.28-9.33-9.83v-19.13h-4.61v-2.35l4.61-2.02,2.06-6.87h2.82v7.46h9.33v3.78h-9.33v18.93c0,1.36.23,2.5.68,3.42.19.38.42.73.7,1.04.92,1.04,2.18,1.56,3.79,1.56.86,0,1.69-.06,2.49-.19.23-.04.47-.08.7-.12.45-.08.83-.17,1.14-.26.02,0,.04-.01.07-.02ZM201.34,739.94l-.67,4.52c-1.11-.24-2.11-.39-3-.43-.17,0-.35-.01-.52-.01-2.36-.02-4.63.96-6.24,2.69-.15.15-.3.31-.44.48-1.52,1.75-2.46,3.93-2.68,6.24-.06.55-.09,1.1-.09,1.65v17.25h-4.87v-32.16h4.02l.56,5.96h.24c1.19-2.09,2.63-3.71,4.31-4.84,1.68-1.13,3.53-1.7,5.54-1.7.67,0,1.34.03,2,.09.62.05,1.23.14,1.84.27ZM231.15,768.5c.61-.68,1.15-1.43,1.62-2.22,1.56-2.67,2.34-6.02,2.34-10.06,0-.26,0-.52-.01-.77-.13-4.74-1.45-8.54-3.97-11.38-1.58-1.8-3.63-3.13-5.92-3.82-1.56-.46-3.18-.69-4.8-.67-1.14,0-2.28.09-3.4.29-2.9.47-5.55,1.91-7.52,4.1-2.62,2.93-3.93,7.01-3.93,12.25,0,1.32.1,2.64.31,3.95.27,1.7.78,3.36,1.51,4.92.11.23.23.47.35.69,1.11,2.11,2.77,3.88,4.81,5.12.98.59,2.02,1.05,3.11,1.38,1.47.44,3.01.65,4.54.64,1.11,0,2.21-.09,3.31-.28,2.95-.46,5.65-1.92,7.64-4.14ZM211.65,762.98c.34.94.82,1.83,1.43,2.63,1.27,1.66,3.13,2.76,5.2,3.06.68.11,1.36.17,2.05.16,1.01,0,2.01-.12,2.98-.37,1.7-.44,3.21-1.44,4.28-2.84.72-.96,1.27-2.03,1.63-3.17.57-1.74.85-3.81.85-6.23,0-2.62-.34-4.84-1.02-6.66-.35-.96-.84-1.85-1.46-2.66-1.23-1.58-3.01-2.64-4.98-2.97-.77-.15-1.55-.22-2.34-.21-.97,0-1.94.1-2.89.34-1.72.41-3.25,1.4-4.33,2.8-.69.91-1.22,1.93-1.57,3.02-.31.93-.53,1.96-.68,3.09-.13,1.08-.19,2.16-.19,3.24,0,2.66.35,4.92,1.04,6.76Z" vector-effect="non-scaling-stroke"/>
  <path id="Left_outsideCutPath" class="st3" d="M512.62,884.41h16.99v17.01h16.99v-17.01h16.99v17.01h16.99v-17.01h16.99v17.01h16.99v-17.01h16.99v17.01h16.99v-17.01h16.99v17.01h16.99v-17.01h16.99v17.01h16.99v-17.01h16.99v17.01h16.99v-17.01h16.99v17.01h16.99v-17.01h22.25v-5.79h17.01v-16.99h-17.01v-16.99h17.01v-16.99h-17.01v-16.99h17.01v-16.99h-17.01v-16.99h17.01v-16.99h-17.01v-16.99h17.01v-16.99h-17.01v-16.99h17.01v-16.99h-17.01v-16.99h17.01v-16.99h-17.01v-16.99h17.01v-16.99h-17.01v-22.8h-158.18v141.73h-17.01v-141.73h-158.18v22.8h-17.01v16.99h17.01v16.99h-17.01v16.99h17.01v16.99h-17.01v16.99h17.01v16.99h-17.01v16.99h17.01v16.99h-17.01v16.99h17.01v16.99h-17.01v16.99h17.01v16.99h-17.01v16.99h17.01v16.99h-17.01v16.99h17.01v5.79h22.25v17.01h16.99v-17.01Z" vector-effect="non-scaling-stroke"/>
  <path id="Left_labelLayer" class="st4" d="M669.06,764.71v3.78h-8.19v28.37h-4.87v-28.37h-5.75v-2.2l5.75-1.76v-1.79c-.02-1.5.14-3.01.46-4.48.95-4.07,3.37-6.45,7.26-7.16.87-.15,1.75-.23,2.64-.22.74,0,1.48.06,2.22.17,1.15.17,2.41.45,3.76.86l-1.26,3.9c-.61-.2-1.22-.37-1.84-.52-.62-.15-1.2-.25-1.75-.31-.41-.05-.82-.08-1.22-.08-.53,0-1.07.05-1.58.18-1.01.23-1.89.82-2.49,1.66-.8,1.11-1.24,2.83-1.31,5.15,0,.24-.01.49-.01.73v2.08h8.19ZM646.27,778.59v3.08h-22.15c.1,3.78,1.05,6.64,2.86,8.6,1.81,1.96,4.36,2.93,7.64,2.93,3.46,0,6.89-.72,10.27-2.17v4.34c-1.72.74-3.35,1.28-4.88,1.6-1.19.25-2.58.4-4.16.46-.47.02-.94.02-1.4.02-1.6.01-3.19-.17-4.74-.56-2.49-.61-4.75-1.93-6.51-3.78-1.66-1.77-2.84-3.94-3.43-6.3-.46-1.73-.69-3.65-.69-5.76-.01-1.7.15-3.4.47-5.07.42-2.06,1.11-3.88,2.07-5.48.38-.63.81-1.24,1.28-1.8,2.25-2.73,5.56-4.38,9.1-4.54.4-.03.79-.04,1.19-.04,1.41-.01,2.82.17,4.18.56,2.09.6,3.96,1.78,5.39,3.42,1.55,1.77,2.61,3.92,3.08,6.22.3,1.4.45,2.83.44,4.27ZM614.31,796.87h-23.91v-42.9h4.99v38.38h18.93v4.52ZM689.72,792.85v3.73c-.18.09-.38.16-.57.22-.47.16-1.06.29-1.76.41-.46.08-.92.14-1.38.18-.5.05-.96.07-1.4.07-6.22,0-9.33-3.28-9.33-9.83v-19.13h-4.61v-2.35l4.61-2.02,2.05-6.87h2.82v7.45h9.33v3.78h-9.33v18.93c0,1.36.23,2.5.68,3.42.18.38.42.73.7,1.05.92,1.04,2.18,1.55,3.79,1.55.86,0,1.69-.06,2.49-.19.23-.04.47-.08.7-.12.45-.08.83-.17,1.14-.26.02,0,.05-.01.07-.02ZM624.23,777.71h16.81c0-.89-.06-1.79-.2-2.67-.16-.95-.4-1.81-.74-2.58-.28-.65-.66-1.26-1.11-1.81-1.02-1.22-2.45-2.03-4.02-2.29-.61-.11-1.23-.17-1.85-.16-.94,0-1.87.12-2.78.38-1.31.39-2.49,1.13-3.4,2.14-1.39,1.52-2.26,3.57-2.62,6.15-.04.28-.07.55-.1.83Z" vector-effect="non-scaling-stroke"/>
  <path id="Bottom_outsideCutPath" class="st3" d="M1251.59,901.41v-17.01h28.53v-22.25h-17.01v-16.99h17.01v-16.99h-17.01v-16.99h17.01v-16.99h-17.01v-16.99h17.01v-16.99h-17.01v-16.99h17.01v-16.99h-17.01v-16.99h17.01v-16.99h-17.01v-16.99h17.01v-16.99h-17.01v-16.99h17.01v-16.99h-17.01v-16.99h17.01v-16.99h-17.01v-16.99h17.01v-22.25h-28.53v-17.01h-16.99v17.01h-16.99v-17.01h-16.99v17.01h-16.99v-17.01h-16.99v17.01h-16.99v-17.01h-16.99v17.01h-16.99v-17.01h-16.99v17.01h-16.99v-17.01h-16.99v17.01h-16.99v-17.01h-16.99v17.01h-16.99v-17.01h-16.99v17.01h-16.99v-17.01h-16.99v17.01h-16.99v-17.01h-16.99v17.01h-16.99v-17.01h-16.99v17.01h-16.99v-17.01h-16.99v17.01h-28.53v22.25h17.01v16.99h-17.01v16.99h17.01v16.99h-17.01v16.99h17.01v16.99h-17.01v16.99h17.01v16.99h-17.01v16.99h17.01v16.99h-17.01v16.99h17.01v16.99h-17.01v16.99h17.01v16.99h-17.01v16.99h17.01v16.99h-17.01v16.99h17.01v16.99h-17.01v22.25h28.53v17.01h16.99v-17.01h16.99v17.01h16.99v-17.01h16.99v17.01h16.99v-17.01h16.99v17.01h16.99v-17.01h16.99v17.01h16.99v-17.01h16.99v17.01h16.99v-17.01h16.99v17.01h16.99v-17.01h16.99v17.01h16.99v-17.01h16.99v17.01h16.99v-17.01h16.99v17.01h16.99v-17.01h16.99v17.01h16.99v-17.01h16.99v17.01h16.99Z" vector-effect="non-scaling-stroke"/>
  <path id="Bottom_labelLayer" class="st4" d="M1177.89,743.59h-5.96v-25.58c0-.86-.06-1.73-.18-2.59-.13-.88-.33-1.67-.61-2.38-.29-.76-.7-1.46-1.22-2.08-.77-.89-1.78-1.54-2.91-1.89-.69-.22-1.46-.37-2.3-.43-.34-.03-.68-.04-1.03-.04-2.6,0-4.72.52-6.37,1.57-.7.44-1.32.99-1.85,1.62-.73.9-1.3,1.92-1.67,3.02-.65,1.83-.98,4.08-.99,6.75v22.02h-5.96v-25.58c0-.86-.05-1.73-.18-2.59-.13-.88-.34-1.67-.61-2.38-.29-.76-.7-1.46-1.22-2.08-.76-.88-1.76-1.53-2.87-1.87-.69-.23-1.46-.37-2.3-.44-.37-.03-.74-.04-1.11-.04-1.03,0-2.05.09-3.06.29-1.26.27-2.36.71-3.29,1.34-.7.47-1.33,1.05-1.85,1.72-.64.85-1.14,1.8-1.48,2.81-.75,2.11-1.12,4.84-1.12,8.18v20.63h-5.96v-39.32h4.84l.97,5.38h.29c1.12-1.91,2.71-3.41,4.75-4.48,2.05-1.08,4.34-1.62,6.87-1.62,1.48-.01,2.95.14,4.39.46,3.72.86,6.27,2.93,7.67,6.21h.29c1.11-1.94,2.73-3.55,4.68-4.65.14-.08.27-.16.41-.23,1.72-.91,3.6-1.48,5.53-1.68.69-.08,1.38-.11,2.07-.11,4.45,0,7.78,1.14,9.99,3.43.98,1.04,1.73,2.26,2.2,3.6.4,1.06.69,2.25.87,3.56.17,1.26.25,2.53.25,3.8v25.65ZM934.47,743.59v-52.45h14.82c1.71,0,3.43.07,5.14.22,3.42.32,6.21.98,8.35,1.99.56.26,1.1.56,1.62.91,2.35,1.56,3.94,4.03,4.39,6.81.19,1.01.28,2.03.27,3.06,0,3.11-.87,5.67-2.6,7.7-1.06,1.22-2.38,2.18-3.87,2.82-1,.45-2.11.79-3.34,1.04-.13.03-.25.05-.38.07v.36c7.43,1.27,11.39,5,11.89,11.19.04.46.05.91.05,1.37.02,1.61-.2,3.2-.64,4.75-.71,2.45-2.14,4.62-4.11,6.23-1.66,1.35-3.58,2.35-5.65,2.94-2.23.67-4.78,1-7.65,1h-18.3ZM1043.65,738.68v4.56c-.23.11-.46.2-.69.28-.5.16-1.1.31-1.8.43-.12.02-.24.04-.35.06-.56.09-1.12.17-1.68.22-.6.06-1.17.09-1.71.09-6.07,0-9.71-2.55-10.94-7.65-.33-1.43-.48-2.9-.47-4.37v-23.39h-5.63v-2.87l5.63-2.48,2.51-8.39h3.44v9.11h11.41v4.63h-11.41v23.14c0,.71.05,1.41.17,2.11.24,1.37.75,2.49,1.51,3.35,1.12,1.27,2.66,1.9,4.63,1.9.96,0,1.92-.07,2.87-.2.06,0,.12-.02.18-.03.29-.05.57-.09.86-.15.55-.1,1.01-.21,1.39-.31.03,0,.05-.01.08-.02ZM1069.58,738.68v4.56c-.23.11-.46.2-.69.28-.49.16-1.09.31-1.8.43-.12.02-.24.04-.36.06-.56.09-1.12.17-1.68.22-.6.06-1.17.09-1.71.09-6.07,0-9.71-2.55-10.94-7.65-.33-1.43-.48-2.9-.47-4.37v-23.39h-5.63v-2.87l5.63-2.48,2.51-8.39h3.44v9.11h11.41v4.63h-11.41v23.14c0,.71.05,1.41.17,2.11.25,1.37.75,2.49,1.51,3.35,1.12,1.27,2.67,1.9,4.63,1.9.96,0,1.92-.07,2.87-.2.06,0,.12-.02.18-.03.29-.05.57-.09.86-.15.55-.1,1.01-.21,1.39-.31.03,0,.05-.01.08-.02ZM1014.58,729.88c.38-1.97.56-3.98.55-5.98,0-6.24-1.62-11.19-4.86-14.85-3.24-3.66-7.61-5.49-13.11-5.49-1.39,0-2.78.11-4.16.36-3.54.57-6.79,2.34-9.19,5.01-.77.86-1.45,1.8-2.02,2.8-1.04,1.81-1.79,3.87-2.25,6.2-.37,1.97-.56,3.97-.54,5.98,0,1.62.12,3.23.37,4.82.33,2.08.95,4.11,1.85,6.01.14.29.28.57.43.85,1.36,2.58,3.39,4.74,5.88,6.26,2.73,1.65,5.85,2.47,9.37,2.47,1.35,0,2.7-.11,4.04-.34,3.6-.56,6.9-2.35,9.34-5.06.75-.84,1.41-1.75,1.98-2.72,1.08-1.84,1.85-3.94,2.32-6.31ZM1110.83,729.88c.38-1.97.56-3.98.55-5.98,0-6.24-1.62-11.19-4.86-14.85-3.24-3.66-7.61-5.49-13.11-5.49-1.39,0-2.78.11-4.16.36-3.54.57-6.79,2.34-9.19,5.01-.77.86-1.45,1.8-2.02,2.8-1.04,1.81-1.79,3.87-2.25,6.2-.37,1.97-.56,3.97-.54,5.98,0,1.62.12,3.23.37,4.82.33,2.08.95,4.11,1.85,6.01.14.29.28.57.43.85,1.36,2.58,3.39,4.74,5.88,6.26,2.73,1.65,5.85,2.47,9.37,2.47,1.35,0,2.7-.11,4.04-.34,3.6-.56,6.9-2.35,9.34-5.06.75-.84,1.41-1.75,1.98-2.72,1.08-1.84,1.85-3.94,2.32-6.31ZM985.17,723.9c0,1.44.09,2.88.29,4.31.21,1.46.54,2.78.98,3.96.42,1.15,1.01,2.23,1.74,3.21,1.55,2.03,3.83,3.37,6.36,3.74.83.14,1.66.21,2.5.2,1.23.01,2.46-.14,3.65-.45,2.08-.54,3.92-1.76,5.23-3.48,1.5-1.95,2.45-4.57,2.83-7.86.14-1.21.2-2.42.2-3.64,0-1.42-.09-2.83-.28-4.23-.43-2.97-1.35-5.35-2.75-7.16-1.51-1.93-3.68-3.23-6.09-3.63-.94-.18-1.9-.26-2.86-.26-1.19-.01-2.37.13-3.53.41-2.1.5-3.97,1.71-5.3,3.42-.84,1.12-1.49,2.37-1.91,3.7-.38,1.13-.65,2.39-.83,3.78-.16,1.32-.24,2.64-.23,3.97ZM1081.42,723.9c0,1.44.09,2.88.29,4.31.21,1.46.54,2.78.98,3.96.42,1.15,1.01,2.23,1.74,3.21,1.55,2.03,3.83,3.37,6.36,3.74.83.14,1.66.21,2.5.2,1.23.01,2.46-.14,3.65-.45,2.08-.54,3.92-1.76,5.23-3.48,1.5-1.95,2.45-4.57,2.83-7.86.14-1.21.2-2.42.2-3.64,0-1.42-.09-2.83-.28-4.23-.43-2.97-1.35-5.35-2.75-7.16-1.51-1.93-3.68-3.23-6.09-3.63-.94-.18-1.9-.26-2.86-.26-1.19-.01-2.37.13-3.53.41-2.1.5-3.97,1.71-5.3,3.42-.84,1.12-1.49,2.37-1.91,3.7-.38,1.13-.65,2.39-.83,3.78-.16,1.32-.24,2.64-.23,3.97ZM951.01,718.77h-10.44v19.62h10.94c1.17,0,2.34-.07,3.5-.22,1.18-.16,2.25-.41,3.21-.74,1.03-.34,1.99-.85,2.86-1.5,2.14-1.64,3.21-4.2,3.21-7.7,0-3.25-1.09-5.64-3.28-7.17-.86-.59-1.81-1.04-2.8-1.35-1.93-.63-4.32-.94-7.19-.94ZM940.57,696.42v17.18h10.05c1.06,0,2.12-.04,3.17-.14,2.11-.21,3.82-.64,5.13-1.3.34-.17.67-.37.98-.59,1.11-.81,1.92-1.95,2.32-3.26.34-1.02.51-2.22.51-3.57,0-.84-.09-1.69-.31-2.5-.4-1.61-1.43-3-2.85-3.86-.75-.45-1.56-.81-2.41-1.05-1.97-.6-4.52-.9-7.64-.9h-8.97Z" vector-effect="non-scaling-stroke"/>
  <path id="Back_outsideCutPath" class="st3" d="M0,291.97v22.79h17.01v16.99H0v16.99h17.01v16.99H0v16.99h17.01v16.99H0v16.99h17.01v16.99H0v16.99h17.01v16.99H0v16.99h17.01v16.99H0v16.99h17.01v16.99H0v16.99h17.01v16.99H0v22.8h28.53v-17.01h16.99v17.01h16.99v-17.01h16.99v17.01h16.99v-17.01h16.99v17.01h16.99v-17.01h16.99v17.01h16.99v-17.01h16.99v17.01h16.99v-17.01h16.99v17.01h16.99v-17.01h16.99v17.01h16.99v-17.01h16.99v17.01h16.99v-17.01h16.99v17.01h16.99v-17.01h16.99v17.01h16.99v-17.01h16.99v17.01h16.99v-17.01h16.99v17.01h28.53v-22.8h-17.01v-16.99h17.01v-16.99h-17.01v-16.99h17.01v-16.99h-17.01v-16.99h17.01v-16.99h-17.01v-16.99h17.01v-16.99h-17.01v-16.99h17.01v-16.99h-17.01v-16.99h17.01v-16.99h-17.01v-16.99h17.01v-16.99h-17.01v-16.99h17.01v-22.79H0Z" vector-effect="non-scaling-stroke"/>
  <path id="Back_labelLayer" class="st4" d="M265.76,448.28h.24c.23-.33.47-.65.71-.96.8-1.04,1.84-2.28,3.13-3.73l10.39-11h5.78l-13.03,13.7,13.94,18.46h-5.9l-11.36-15.2-3.67,3.17v12.03h-4.81v-45.66h4.81v24.21c0,1.06-.08,2.68-.23,4.87,0,.04,0,.08,0,.12ZM160.95,464.74v-42.9h12.12c1.4,0,2.8.06,4.2.18,3.57.33,6.29,1.12,8.15,2.37,1.92,1.28,3.22,3.29,3.59,5.57.15.82.23,1.66.22,2.5,0,.97-.11,1.94-.35,2.88-.32,1.26-.93,2.43-1.78,3.42-.87,1-1.95,1.78-3.16,2.31-.82.36-1.73.64-2.73.84-.1.02-.21.04-.31.06v.29c1.39.22,2.75.61,4.04,1.17,3.48,1.53,5.38,4.2,5.68,7.98.03.37.05.75.05,1.12.01,1.31-.16,2.62-.52,3.88-.58,2-1.75,3.78-3.36,5.1-2.18,1.81-5.1,2.86-8.75,3.15-.71.05-1.41.08-2.12.08h-14.96ZM222.54,464.74h-3.61l-.97-4.58h-.24c-1.13,1.42-2.26,2.52-3.39,3.3-.44.31-.92.57-1.41.8-1.59.71-3.58,1.07-5.97,1.07-3.19,0-5.69-.82-7.5-2.46-1.22-1.12-2.07-2.6-2.42-4.22-.21-.92-.31-1.85-.3-2.79-.14-3.37,1.75-6.5,4.8-7.95,2.38-1.27,5.64-2.01,9.8-2.22.33-.02.66-.03.99-.04l5.46-.18v-2c0-.68-.04-1.35-.14-2.02-.1-.69-.26-1.31-.47-1.87-.23-.63-.58-1.2-1.02-1.7-.56-.6-1.25-1.06-2.03-1.32-.89-.32-1.95-.48-3.18-.48-1.23,0-2.46.16-3.65.45-1.7.4-3.52,1.07-5.45,2.01l-1.5-3.72c1.38-.74,2.83-1.34,4.33-1.78.29-.09.58-.17.87-.24,1.85-.48,3.76-.73,5.68-.73,1.05,0,2.1.07,3.13.22,1.08.17,2.04.43,2.9.78.92.37,1.76.89,2.49,1.55.9.85,1.58,1.9,1.99,3.07.31.84.53,1.78.65,2.83.09.76.13,1.52.13,2.29v21.95ZM254.03,433.66l-1.5,4.14c-.77-.31-1.55-.57-2.35-.78-.39-.11-.78-.2-1.17-.29-.51-.11-1.02-.21-1.53-.28-.66-.09-1.28-.14-1.84-.14-1.5-.03-3,.25-4.39.82-3.61,1.59-5.41,5.48-5.41,11.67,0,3.95.8,6.98,2.39,9.1,1.22,1.62,3.01,2.69,5.01,3,.69.12,1.38.18,2.07.17,1.9,0,3.8-.28,5.62-.82.89-.26,1.77-.56,2.62-.91v4.31c-1.07.55-2.21.95-3.39,1.2-1.04.23-2.17.38-3.39.44-.45.02-.9.03-1.35.03-1.49.01-2.98-.16-4.43-.51-2.47-.58-4.7-1.9-6.38-3.79-1.36-1.56-2.36-3.39-2.93-5.38-.6-1.98-.9-4.24-.9-6.78-.01-1.64.13-3.27.42-4.89.34-1.82.88-3.44,1.62-4.88.5-.97,1.13-1.88,1.85-2.71,1.81-2.04,4.23-3.43,6.91-3.97,1.37-.3,2.77-.44,4.17-.43,1.56,0,3.11.17,4.64.5.45.1.9.21,1.35.33.9.25,1.66.53,2.26.83.01,0,.02,0,.03.01ZM174.48,444.43h-8.54v16.05h8.95c3.46,0,6.07-.67,7.82-2.01,1.67-1.28,2.54-3.24,2.62-5.9,0-.13,0-.26,0-.4,0-.77-.08-1.54-.26-2.29-.33-1.45-1.2-2.73-2.42-3.58-.71-.48-1.48-.85-2.29-1.11-1.48-.48-3.29-.74-5.43-.77-.15,0-.3,0-.45,0ZM165.94,426.15v14.05h8.22c.87,0,1.73-.04,2.6-.12,2.2-.22,3.87-.73,5-1.54,1.36-.98,2.12-2.54,2.28-4.69.02-.3.03-.6.03-.9,0-.69-.08-1.38-.25-2.05-.33-1.32-1.17-2.46-2.33-3.16-.62-.37-1.28-.66-1.97-.86-1.32-.4-2.96-.64-4.91-.71-.45-.02-.89-.03-1.34-.03h-7.34ZM217.67,451.83v-2.91l-4.87.2c-3.24.12-5.72.55-7.44,1.32-.32.14-.64.31-.94.49-1.36.81-2.27,2.2-2.48,3.77-.06.4-.09.8-.09,1.2,0,.54.05,1.07.17,1.6.19.82.55,1.51,1.07,2.07.11.12.24.24.36.35.92.79,2.16,1.24,3.71,1.35.25.02.51.03.76.03,2.62,0,4.76-.62,6.4-1.86.26-.2.51-.41.74-.63,1.72-1.65,2.59-3.96,2.6-6.93,0-.02,0-.03,0-.05Z" vector-effect="non-scaling-stroke"/>
  <path id="Right_outsideCutPath" class="st3" d="M512.62,575.43h16.99v17.01h16.99v-17.01h16.99v17.01h16.99v-17.01h16.99v17.01h16.99v-17.01h16.99v17.01h16.99v-17.01h16.99v17.01h16.99v-17.01h16.99v17.01h16.99v-17.01h16.99v17.01h16.99v-17.01h16.99v17.01h16.99v-17.01h22.25v-5.79h17.01v-16.99h-17.01v-16.99h17.01v-16.99h-17.01v-16.99h17.01v-16.99h-17.01v-16.99h17.01v-16.99h-17.01v-16.99h17.01v-16.99h-17.01v-16.99h17.01v-16.99h-17.01v-16.99h17.01v-16.99h-17.01v-16.99h17.01v-16.99h-17.01v-22.79h-158.18v141.73h-17.01v-141.73h-158.18v22.79h-17.01v16.99h17.01v16.99h-17.01v16.99h17.01v16.99h-17.01v16.99h17.01v16.99h-17.01v16.99h17.01v16.99h-17.01v16.99h17.01v16.99h-17.01v16.99h17.01v16.99h-17.01v16.99h17.01v16.99h-17.01v16.99h17.01v5.79h22.25v17.01h16.99v-17.01Z" vector-effect="non-scaling-stroke"/>
  <path id="Right_labelLayer" class="st4" d="M677.82,500.77h-4.87v-20.8c0-.72-.05-1.44-.16-2.16-.25-1.57-.79-2.8-1.63-3.71-.97-1.05-2.38-1.67-4.23-1.87-.46-.05-.92-.07-1.38-.07-.92,0-1.85.07-2.76.24-1.02.19-1.92.51-2.7.94-.74.4-1.4.94-1.95,1.58-.6.73-1.06,1.55-1.37,2.44-.55,1.49-.87,3.34-.94,5.55-.01.35-.02.7-.02,1.05v16.81h-4.87v-45.66h4.87v13.82c0,1.2-.04,2.25-.12,3.15-.03.33-.07.66-.11.99h.29c.85-1.36,2.02-2.49,3.41-3.28.22-.13.45-.26.69-.37,1.29-.64,2.67-1.05,4.1-1.22.65-.08,1.3-.12,1.96-.12,1.11,0,2.22.08,3.32.26,1.18.2,2.23.52,3.16.95.87.4,1.67.93,2.36,1.59.94.92,1.66,2.04,2.09,3.29.57,1.55.86,3.43.86,5.62v20.98ZM633.22,468.61h11.12v3.08l-5.96.7c.55.69,1.04,1.58,1.47,2.69.28.72.46,1.47.55,2.24.06.5.09,1,.09,1.5.01,1.17-.16,2.34-.51,3.46-.51,1.58-1.45,3-2.72,4.08-1.23,1.06-2.68,1.82-4.25,2.24-1.07.3-2.24.49-3.52.55-.36.02-.73.03-1.09.03-.61,0-1.21-.03-1.81-.1-.3-.03-.59-.08-.89-.13-1.18.63-2.03,1.34-2.54,2.15-.38.59-.58,1.28-.57,1.98,0,.88.36,1.53,1.09,1.95.58.34,1.5.54,2.76.61.32.02.65.02.97.02h5.69c2.32,0,4.29.33,5.89.98.77.31,1.48.72,2.13,1.22,1.43,1.12,2.38,2.74,2.65,4.54.1.61.16,1.23.15,1.86.02,1.24-.19,2.48-.6,3.65-.67,1.83-1.9,3.33-3.68,4.5-1.17.74-2.44,1.32-3.76,1.71-1.24.38-2.61.66-4.12.84-1.53.18-3.07.26-4.61.26-1.22,0-2.45-.07-3.66-.23-2.48-.33-4.5-1.04-6.07-2.12-2.28-1.56-3.42-3.77-3.42-6.63-.03-1.87.64-3.68,1.88-5.08,1.25-1.43,3.01-2.4,5.28-2.91-.78-.35-1.45-.9-1.96-1.59-.04-.05-.07-.1-.1-.14-.51-.72-.79-1.56-.83-2.44,0-.1,0-.19,0-.29,0-.61.09-1.22.28-1.79.15-.46.38-.89.66-1.29.27-.38.58-.72.92-1.04.55-.52,1.23-1.02,2.04-1.52-1.66-.68-3.02-1.85-4.06-3.49-.92-1.46-1.45-3.13-1.54-4.85-.02-.26-.03-.52-.03-.78,0-1.12.12-2.24.37-3.33.42-1.85,1.39-3.54,2.8-4.82,1.15-1.01,2.5-1.76,3.97-2.19,1.05-.32,2.21-.53,3.48-.62.51-.04,1.02-.05,1.53-.05.83,0,1.65.05,2.47.16.7.09,1.4.24,2.08.43ZM580.35,482.93h-8.95v17.84h-4.99v-42.9h11.77c1.37,0,2.75.07,4.11.24,3.23.41,5.74,1.33,7.55,2.78,1.69,1.37,2.88,3.27,3.36,5.4.28,1.12.42,2.35.42,3.7,0,4.6-1.89,7.99-5.67,10.17-.94.53-1.93.98-2.95,1.33l11.65,19.28h-5.9l-10.39-17.84ZM702.62,496.75v3.73c-.18.09-.37.16-.57.22-.47.16-1.06.29-1.76.41-.46.08-.92.14-1.38.18-.5.05-.96.07-1.4.07-6.22,0-9.33-3.28-9.33-9.83v-19.13h-4.61v-2.35l4.61-2.02,2.05-6.87h2.82v7.45h9.33v3.78h-9.33v18.93c0,1.36.23,2.5.68,3.42.18.38.42.73.7,1.05.92,1.04,2.18,1.55,3.79,1.55.86,0,1.69-.06,2.49-.19.23-.04.47-.08.7-.12.45-.08.83-.17,1.14-.26.02,0,.04-.01.07-.02ZM607.69,468.61v32.16h-4.87v-32.16h4.87ZM571.4,462.25v16.4h6.83c3.42,0,5.95-.66,7.6-1.98.05-.04.1-.08.14-.12,1.03-.89,1.76-2.07,2.1-3.39.24-.87.36-1.84.36-2.91,0-.77-.07-1.54-.22-2.29-.18-.88-.48-1.66-.9-2.32-.37-.59-.84-1.11-1.39-1.52-.64-.46-1.34-.82-2.08-1.07-1.34-.46-3.01-.73-5-.79-.32,0-.65-.01-.97-.01h-6.48ZM631.55,500.04h-5.84c-2.21,0-3.93.53-5.16,1.58-1.23,1.06-1.85,2.57-1.85,4.55,0,1.62.64,2.88,1.91,3.77.09.07.19.13.29.19.6.36,1.24.64,1.92.82,1.21.35,2.66.52,4.35.53h.04c3.65,0,6.46-.49,8.42-1.47.23-.11.45-.24.67-.37.62-.37,1.17-.84,1.65-1.38.86-1,1.33-2.28,1.3-3.59,0-.44-.04-.88-.12-1.31-.1-.5-.27-.94-.5-1.31-.25-.41-.59-.75-.99-1-.34-.21-.71-.37-1.1-.48-.78-.24-1.78-.4-3.01-.48-.65-.04-1.31-.06-1.96-.06ZM622.42,483.07c.23.35.51.67.82.95.73.65,1.59,1.12,2.53,1.37.64.19,1.35.3,2.12.34.22.01.44.02.66.02.94.01,1.87-.1,2.78-.33,2.12-.58,3.47-1.9,4.04-3.99.22-.85.33-1.73.32-2.61.01-.97-.11-1.93-.36-2.87-.83-2.92-3.12-4.38-6.86-4.38-.7,0-1.4.06-2.08.2-.85.18-1.6.47-2.25.89-.34.22-.66.47-.95.76-1.05,1.05-1.65,2.52-1.81,4.42-.03.35-.04.71-.04,1.06,0,1.7.36,3.08,1.09,4.16ZM602.48,459.01c-.05.3-.07.59-.07.89,0,.18,0,.37.03.55.03.33.09.62.18.89.12.38.33.72.61,1.01.28.28.62.49.99.63.34.12.7.18,1.07.18.76.01,1.48-.28,2.02-.81.19-.18.34-.39.46-.62.14-.26.24-.57.31-.91.05-.3.08-.61.08-.92,0-.18,0-.35-.02-.53-.08-.83-.36-1.47-.83-1.91-.54-.52-1.27-.8-2.02-.79-.08,0-.16,0-.25,0-.68.03-1.32.3-1.81.77-.21.2-.38.45-.5.72-.11.25-.2.53-.25.84Z" vector-effect="non-scaling-stroke"/>
  <path id="rowDivider-0_outsideCutPath" class="st3" d="M0,0v141.73h17.01v141.73h413.86v-141.73h17.01V0H0Z" vector-effect="non-scaling-stroke"/>
  <path id="rowDivider-0_labelLayer" class="st4" d="M302.7,48.43h-2.84l-2.9-10.2c-.05-.17-.1-.35-.14-.52-.2-.76-.49-2-.88-3.73h-.12c-.32,1.53-.6,2.76-.85,3.71-.05.19-.1.38-.16.57l-2.98,10.17h-2.77l-4.31-17.38h2.51c.24,1.03.48,2.05.72,3.08.67,2.88,1.21,5.18,1.61,6.9.53,2.28.84,3.82.91,4.62h.12c.04-.21.08-.41.12-.62.1-.49.23-1.06.39-1.72.2-.82.38-1.49.53-2.02.03-.09.05-.17.08-.26l2.9-9.98h2.59l2.82,9.98c.36,1.22.64,2.31.85,3.27.09.43.18.87.24,1.31h.12c.01-.11.03-.22.04-.32.04-.25.09-.55.16-.9.04-.18.07-.36.11-.54.03-.15.07-.31.1-.46.31-1.36,1.18-5.05,2.6-11.07.1-.42.2-.85.3-1.27h2.48l-4.37,17.38ZM372.22,48.43l-.32-2.33h-.13c-.9,1.47-2.35,2.42-3.95,2.58-.33.05-.67.07-1,.07-2.07,0-3.67-.78-4.82-2.33-1.15-1.55-1.72-3.76-1.72-6.63,0-.87.06-1.74.18-2.6.25-1.65.77-3.01,1.55-4.08.98-1.36,2.44-2.21,4.02-2.34.26-.03.53-.04.8-.04.72,0,1.43.1,2.12.33,1.13.39,2.12,1.17,2.81,2.24h.19l-.1-1.25-.06-1.22v-7.08h2.39v24.68h-1.95ZM345.16,48.43h-2.8l-6-17.38h2.57l3.4,10.31c.6,1.88,1.01,3.25,1.22,4.1.05.2.1.4.13.6h.12c.03-.15.06-.3.1-.45.12-.49.33-1.2.61-2.12.09-.3.19-.61.28-.91.16-.49.31-.97.47-1.45.52-1.6,1.29-3.94,2.31-7.03.34-1.01.67-2.03,1.01-3.04h2.56l-5.99,17.38ZM391.72,38.55v1.66h-10.88c.01.59.07,1.19.17,1.77.12.64.29,1.22.52,1.72.19.42.43.81.72,1.15.89,1.06,2.14,1.59,3.75,1.59,1.7,0,3.38-.39,5.04-1.17v2.35c-.85.4-1.64.69-2.4.86-.75.17-1.66.26-2.73.26-.78,0-1.57-.09-2.33-.3-1.22-.33-2.33-1.04-3.2-2.04-.81-.96-1.39-2.13-1.69-3.4-.19-.8-.31-1.68-.33-2.64,0-.16,0-.32,0-.48,0-.92.07-1.84.23-2.74.29-1.55.84-2.87,1.65-3.94,1.11-1.48,2.73-2.37,4.47-2.45.19-.01.39-.02.58-.02.69,0,1.38.09,2.05.3,1.03.32,1.94.97,2.65,1.85.76.96,1.28,2.12,1.52,3.36.15.76.22,1.53.21,2.31ZM316.12,48.43h-5.84v-23.19h6.46c2.74,0,4.96.7,6.68,2.09.34.27.66.58.96.9,1.15,1.28,1.96,2.89,2.33,4.64.26,1.13.39,2.37.39,3.73,0,1.16-.09,2.32-.3,3.46-.27,1.4-.71,2.63-1.33,3.69-.34.59-.75,1.14-1.21,1.63-1.08,1.14-2.4,1.96-3.83,2.41-.95.31-2,.51-3.14.59-.39.03-.78.04-1.17.04ZM430.08,39.95c.09-1.04.14-2.09.14-3.14,0-1.09-.05-2.18-.16-3.26-.12-1.07-.29-2.04-.53-2.92-.25-.94-.61-1.85-1.08-2.68-.03-.06-.07-.12-.11-.18-1.18-1.92-2.88-2.88-5.1-2.88-2.34,0-4.09.98-5.23,2.93-.11.19-.22.39-.32.6-.64,1.34-1.06,3.09-1.26,5.23-.09,1.05-.14,2.11-.14,3.16,0,.08,0,.15,0,.23.01,2.38.25,4.4.71,6.06.24.92.6,1.8,1.06,2.61.74,1.27,1.69,2.14,2.85,2.61.74.29,1.53.44,2.32.43.41,0,.81-.03,1.21-.1,1.68-.23,3.17-1.29,4.05-2.87.09-.16.18-.32.26-.48.68-1.37,1.12-3.15,1.33-5.36ZM266.18,30.92l-.33,2.44c-.25-.06-.5-.11-.76-.15-.25-.04-.49-.07-.72-.08-.09,0-.17,0-.26,0-1.16,0-2.27.52-3.06,1.46-.07.08-.15.17-.22.26-.75.95-1.21,2.13-1.32,3.38-.03.3-.04.59-.04.89v9.33h-2.39v-17.38h1.97l.27,3.22h.12c.26-.5.56-.98.9-1.42.35-.46.76-.86,1.21-1.2.8-.61,1.75-.93,2.72-.92.33,0,.66.02.98.05.3.03.61.08.9.14ZM404.89,30.92l-.33,2.44c-.25-.06-.5-.11-.76-.15-.25-.04-.49-.07-.72-.08-.09,0-.17,0-.26,0-1.16,0-2.27.52-3.06,1.46-.07.08-.15.17-.22.26-.75.95-1.21,2.13-1.32,3.38-.03.3-.04.59-.04.89v9.33h-2.39v-17.38h1.97l.27,3.22h.12c.26-.5.56-.98.9-1.42.35-.46.76-.86,1.21-1.2.8-.61,1.75-.93,2.72-.92.33,0,.66.02.98.05.3.03.61.08.9.14ZM316.29,27.57h-3.56v18.53h2.98c1.95,0,3.58-.35,4.89-1.06.63-.33,1.2-.78,1.7-1.31.8-.88,1.39-1.97,1.72-3.16.22-.77.37-1.62.44-2.54.03-.44.05-.87.05-1.31,0-.87-.06-1.74-.2-2.6-.16-.95-.41-1.8-.76-2.55-.29-.62-.66-1.19-1.11-1.69-1.17-1.3-2.82-2.05-4.96-2.25-.4-.04-.79-.05-1.19-.05ZM282.55,42.37c.15-.87.23-1.76.22-2.65,0-.14,0-.28,0-.42-.02-.96-.13-1.86-.32-2.68-.28-1.28-.84-2.48-1.63-3.47-.77-.97-1.78-1.69-2.91-2.06-.77-.25-1.56-.37-2.36-.36-.56,0-1.12.05-1.67.16-1.42.25-2.73,1.03-3.69,2.21-.31.38-.58.8-.81,1.24-.75,1.43-1.12,3.23-1.12,5.38,0,.71.05,1.43.15,2.13.13.92.38,1.82.74,2.66.06.13.11.25.17.38.55,1.14,1.36,2.09,2.36,2.76.48.32.99.57,1.53.75.72.24,1.48.35,2.23.35.54,0,1.09-.05,1.62-.15,1.45-.25,2.77-1.04,3.75-2.24.86-1.06,1.44-2.39,1.73-3.99ZM418.7,36.81c0,.83.02,1.66.08,2.49.11,1.62.33,2.95.66,4,.1.3.21.59.34.88.65,1.38,1.64,2.14,2.98,2.28.15.02.31.02.46.02.52,0,1.03-.09,1.51-.29.71-.3,1.29-.84,1.74-1.62.08-.14.15-.28.22-.43.61-1.32.96-3.27,1.05-5.86.02-.49.03-.98.03-1.47,0-2.8-.25-4.97-.76-6.51-.09-.28-.2-.55-.32-.81-.23-.52-.55-.98-.94-1.37-.66-.64-1.5-.95-2.52-.95-.51,0-1.02.09-1.5.28-.71.3-1.29.84-1.73,1.61-.07.13-.14.26-.21.4-.23.51-.42,1.05-.55,1.6-.36,1.46-.53,3.38-.53,5.75ZM333.83,31.05v17.38h-2.39v-17.38h2.39ZM356.08,31.05v17.38h-2.39v-17.38h2.39ZM270.74,39.72c0,.64.04,1.27.12,1.91.08.64.22,1.23.39,1.75.17.51.41.99.7,1.42.62.9,1.54,1.49,2.55,1.66.33.06.67.09,1,.09,1.57,0,2.76-.58,3.57-1.74.35-.52.62-1.1.8-1.71.16-.53.27-1.11.34-1.76.06-.53.08-1.07.08-1.61,0-2.21-.41-3.89-1.22-5.04-.81-1.15-2.01-1.72-3.59-1.72-.48,0-.95.06-1.42.18-.85.22-1.6.76-2.13,1.51-.57.81-.94,1.92-1.1,3.31-.06.58-.1,1.17-.09,1.75ZM371.78,40.34v-.56c0-.61-.02-1.21-.08-1.81-.12-1.22-.36-2.2-.73-2.94-.09-.18-.2-.36-.31-.52-.74-1.05-1.93-1.58-3.57-1.58-1.4,0-2.48.6-3.22,1.8-.32.53-.56,1.1-.72,1.71-.26.95-.39,2.08-.39,3.38,0,.61.03,1.23.1,1.83.07.6.18,1.15.32,1.65.16.55.39,1.07.69,1.55.61.95,1.56,1.55,2.61,1.66.21.03.43.04.64.04.44,0,.87-.04,1.3-.12.98-.2,1.73-.65,2.25-1.34.28-.39.5-.82.65-1.29.27-.81.42-1.83.45-3.04,0-.14,0-.27,0-.41ZM380.9,38.08h8.26c0-.48-.03-.97-.1-1.44-.08-.52-.2-.98-.36-1.39-.14-.35-.32-.68-.55-.98-.5-.66-1.2-1.1-1.97-1.24-.3-.06-.6-.09-.91-.09-.46,0-.92.06-1.36.21-.64.21-1.22.61-1.67,1.16-.41.51-.73,1.1-.94,1.74-.16.48-.27,1-.35,1.58-.02.15-.03.3-.05.45ZM413.6,40.93h-7.08v-2.41h7.08v2.41ZM331.27,25.85c-.02.16-.03.32-.03.48,0,.1,0,.2.01.3.04.45.17.79.39,1.03.14.15.3.27.49.34.17.07.35.1.52.1.38,0,.72-.15.99-.44.28-.29.42-.73.42-1.33,0-.09,0-.19-.01-.28-.01-.17-.04-.33-.09-.47-.06-.21-.17-.4-.32-.56-.28-.29-.61-.43-.99-.43-.04,0-.08,0-.12,0-.33.02-.65.16-.89.42-.1.11-.19.24-.25.39-.06.13-.1.28-.12.45ZM353.52,25.85c-.02.16-.03.32-.03.48,0,.1,0,.2.01.3.04.45.17.79.39,1.03.14.15.3.27.49.34.17.07.34.1.52.1.38,0,.72-.15.99-.44.28-.29.42-.73.42-1.33,0-.09,0-.19-.01-.28-.01-.17-.04-.33-.09-.47-.06-.21-.17-.4-.32-.56-.28-.29-.61-.43-.99-.43-.04,0-.08,0-.12,0-.33.02-.65.16-.89.42-.1.11-.19.24-.25.39-.06.13-.1.28-.12.45Z" vector-effect="non-scaling-stroke"/>
  <circle class="st2" cx="220.34" cy="266.49" r="4.96"/>
  <rect class="st2" x="27.74" y="140.23" width="21.26" height="24.09"/>
  <circle class="st2" cx="412.42" cy="152.28" r="5.67"/>
  <rect class="st2" x="847.27" y="72.81" width="299.57" height="447.41"/>
  <g class="st1">
    <g class="st1">
      <text class="st0" transform="translate(881.39 402.56) scale(1.02 1)"><tspan x="0" y="0">deksel</tspan></text>
    </g>
  </g>
  <line class="st2" x1="1001.19" y1="72.81" x2="1001.19" y2="520.22"/>
  <polygon class="st5" points="1046.81 504.3 1046.81 500.05 1147.22 500.05 1147.22 491.55 1046.81 491.55 1046.81 487.3 1015.63 487.3 1015.63 504.3 1046.81 504.3"/>
  <circle class="st5" cx="1025.96" cy="283.46" r="17.01"/>
  <circle class="st2" cx="1073.58" cy="870.28" r="4.96"/>
</svg>